<svg width="30" height="37" viewBox="0 0 30 37" fill="none" xmlns="http://www.w3.org/2000/svg">
<mask id="mask0_34_115" style="mask-type:luminance" maskUnits="userSpaceOnUse" x="0" y="0" width="30" height="37">
<path d="M30 0H0V36.211H30V0Z" fill="white"/>
</mask>
<g mask="url(#mask0_34_115)">
<path d="M25.6044 31.8183C22.7914 34.631 18.9763 36.2111 14.9983 36.2111C11.0204 36.2111 7.20527 34.631 4.39223 31.8183C4.24673 31.6728 4.10754 31.5273 3.96786 31.3775C3.22485 30.571 2.57145 29.6864 2.0191 28.739C2.23784 28.8103 2.45561 28.8787 2.6758 28.9418C2.68109 28.9441 2.68662 28.9459 2.69229 28.9471H2.69811C2.93043 29.0155 3.16032 29.081 3.39021 29.1411C3.44793 29.1552 3.50274 29.1717 3.55754 29.1896C3.77628 29.2444 3.99405 29.2992 4.21715 29.3458C4.27816 29.364 4.34018 29.3785 4.4029 29.3894C4.57023 29.4307 4.74241 29.4661 4.91217 29.499C5.03002 29.5238 5.15467 29.5475 5.26816 29.5703C5.44325 29.6028 5.61542 29.6334 5.79051 29.6605C5.90594 29.6824 6.01507 29.6989 6.13292 29.7124C6.28085 29.7401 6.4312 29.7609 6.58204 29.7784C6.71299 29.8002 6.84443 29.8167 6.97877 29.8303C7.1621 29.855 7.34544 29.874 7.5341 29.8875C7.61073 29.8987 7.69028 29.9069 7.77224 29.9123C7.97206 29.9317 8.17189 29.9452 8.37462 29.9559C8.48132 29.9642 8.58802 29.9724 8.70006 29.9753C8.81209 29.9782 8.93286 29.9889 9.05072 29.9918C9.26945 30.0025 9.4911 30.0054 9.71323 30.0083C9.74049 30.0107 9.76794 30.0107 9.7952 30.0083C10.0086 30.0136 10.2249 30.0083 10.4383 30.0054C10.5838 30.0083 10.7259 30.0025 10.8651 29.9942C11.0242 29.9942 11.1799 29.9865 11.3361 29.9782C11.4263 29.9753 11.5141 29.97 11.5989 29.9617C11.807 29.9506 12.0151 29.9341 12.2226 29.9181C12.3294 29.9098 12.439 29.8987 12.5457 29.8851C12.6989 29.874 12.8498 29.8604 12.9977 29.8366C13.1432 29.823 13.2887 29.8036 13.4298 29.7818C13.5584 29.7682 13.6874 29.7488 13.8106 29.7299C13.9745 29.7081 14.136 29.6814 14.2956 29.6533C14.4551 29.6251 14.6239 29.5985 14.7883 29.5655C14.8639 29.5552 14.9389 29.5406 15.0129 29.5218C15.2428 29.4777 15.4727 29.4287 15.6997 29.3763C15.9845 29.3162 16.2665 29.2478 16.5455 29.1712C16.6687 29.1406 16.788 29.1081 16.9093 29.0742C17.8903 28.8031 18.8539 28.4721 19.7946 28.0833C19.9284 28.0314 20.0598 27.9766 20.1913 27.9165C20.3368 27.8588 20.4784 27.7933 20.621 27.7273C20.7389 27.6754 20.8591 27.6206 20.977 27.5634C21.1079 27.5032 21.2394 27.4373 21.3684 27.3747C21.8389 27.1443 22.3015 26.9009 22.756 26.638C22.8709 26.5725 22.983 26.5095 23.0955 26.4411C23.1697 26.3999 23.2381 26.3591 23.3094 26.315L23.6542 26.1016C24.1223 25.8106 24.5791 25.4997 25.0307 25.1738L25.3348 24.9521L25.4715 24.8483C25.5918 24.7607 25.7095 24.6703 25.8246 24.5772C25.9997 24.4404 26.1748 24.3037 26.3445 24.1611C26.393 24.1257 26.4348 24.0874 26.4789 24.049C26.5963 23.952 26.7141 23.8521 26.8291 23.7532C26.944 23.6542 27.0619 23.548 27.1768 23.4442C27.2588 23.3729 27.3383 23.2987 27.4193 23.2226C27.6822 22.9817 27.9394 22.7353 28.191 22.4834C28.32 22.3544 28.4456 22.2288 28.5664 22.0954C28.6318 22.03 28.6949 21.9669 28.7579 21.8985C28.9767 21.6628 29.1901 21.4276 29.3981 21.187L29.4064 21.1788C29.4583 21.1211 29.5107 21.0638 29.5596 21.0032C29.6993 20.8417 29.8332 20.6802 29.9704 20.5182C29.9752 20.5136 29.9789 20.508 29.9811 20.5017C30.0142 21.2064 29.998 21.9125 29.9326 22.6149V22.6314C29.9326 22.6342 29.9316 22.637 29.9297 22.6391C29.6028 26.1097 28.0728 29.3568 25.6044 31.8183Z" fill="url(#paint0_linear_34_115)"/>
<path d="M28.1937 22.4848C24.9211 25.7598 20.824 28.0892 16.3359 29.2264C11.8479 30.3637 7.13584 30.2665 2.6985 28.9451C2.6907 28.9456 2.68293 28.9437 2.67619 28.9397H2.67085C2.45211 28.8738 2.23435 28.8054 2.01949 28.737C1.3617 27.6083 0.857222 26.3969 0.519367 25.1349C0.274245 24.223 0.114955 23.2901 0.0435791 22.3485C0.240491 22.3432 0.434977 22.3349 0.631889 22.3238H0.637224C0.641647 22.3224 0.646385 22.3224 0.650804 22.3238H0.653714C6.97729 21.9908 12.9527 19.3243 17.4237 14.8401C19.353 12.9117 20.9649 10.6901 22.1996 8.25766V8.25475C22.2049 8.24941 22.2078 8.24117 22.2131 8.23583L22.2078 8.23535C22.2108 8.22933 22.2145 8.2238 22.219 8.21886C22.331 7.99721 22.4406 7.77265 22.5449 7.5481L25.6048 10.6085C28.2488 13.2451 29.8109 16.7755 29.9839 20.5055C29.7977 20.7354 29.6061 20.9599 29.4092 21.1845C29.0231 21.6278 28.6181 22.0604 28.1937 22.4848Z" fill="url(#paint1_linear_34_115)"/>
<path d="M17.4235 14.8402C17.2402 15.0235 17.054 15.2039 16.8677 15.3795C16.7474 15.4945 16.6252 15.6036 16.504 15.7161C16.0112 16.1646 15.5021 16.5915 14.9767 16.997C14.8423 17.1037 14.7085 17.2051 14.5712 17.3035C14.4073 17.4296 14.2404 17.546 14.0707 17.6678C13.9116 17.7827 13.753 17.8918 13.5891 18.0015C13.5503 18.0286 13.5095 18.0534 13.4712 18.081C13.3369 18.1712 13.1972 18.2614 13.0604 18.3492C12.3486 18.8038 11.6141 19.2222 10.86 19.6025C10.712 19.6791 10.5646 19.7504 10.4191 19.8188C10.4027 19.8289 10.3853 19.8372 10.3672 19.8435C10.2168 19.9172 10.0718 19.9856 9.92099 20.054C9.87733 20.0763 9.82835 20.0981 9.77888 20.12C9.61737 20.1937 9.45586 20.2621 9.29387 20.3309C9.11054 20.41 8.9243 20.4866 8.73806 20.5579C8.55182 20.6292 8.35248 20.7083 8.15605 20.7825C7.97563 20.848 7.7923 20.911 7.6143 20.9765C7.4203 21.042 7.23357 21.105 7.0449 21.1622C6.85624 21.2195 6.66418 21.2801 6.4726 21.3349C6.28102 21.3897 6.08944 21.4445 5.90078 21.4964C5.71211 21.5483 5.51277 21.5978 5.31877 21.6419C5.12477 21.686 4.93319 21.7321 4.73675 21.7733C4.34875 21.8577 3.96074 21.9344 3.57274 22.0003C3.18473 22.0663 2.78994 22.1206 2.39854 22.1725C1.81653 22.2409 1.23453 22.2933 0.6467 22.3258H0.64379C0.638455 22.3258 0.638455 22.3258 0.635545 22.3258L0.634357 22.3267L0.632877 22.3271L0.631393 22.3267L0.63021 22.3258C0.433297 22.3369 0.233475 22.3452 0.0365629 22.3505C-0.0243832 21.5486 -0.0208153 20.7432 0.0472328 19.942C0.0498128 19.934 0.0508018 19.9256 0.0501431 19.9172C0.349102 16.3983 1.88513 13.0991 4.38561 10.6051L14.9985 0L22.5442 7.54571C22.4399 7.77027 22.3332 7.99192 22.2183 8.21114V8.21647C22.2138 8.22142 22.21 8.227 22.2071 8.23296L22.21 8.23588L22.2018 8.24364C22.2002 8.24499 22.1988 8.24669 22.1979 8.24863C22.197 8.25052 22.1965 8.25266 22.1965 8.25479V8.2577C22.1886 8.2705 22.1823 8.28418 22.1776 8.29844L22.1038 8.43812C21.9085 8.82031 21.6996 9.19895 21.4772 9.574C21.3317 9.82863 21.176 10.0833 21.0174 10.335C20.7303 10.7919 20.4247 11.2453 20.1008 11.6954C20.0212 11.8021 19.9475 11.9088 19.865 12.0126C19.671 12.2726 19.4736 12.5301 19.2685 12.7847C19.1948 12.8817 19.1152 12.9787 19.0357 13.0665C18.8936 13.2416 18.7447 13.4143 18.5953 13.584C18.2209 14.0137 17.8303 14.4324 17.4235 14.8402Z" fill="url(#paint2_linear_34_115)"/>
<g style="mix-blend-mode:multiply" opacity="0.15">
<path d="M0.519367 25.1369C0.274245 24.225 0.114955 23.2922 0.0435791 22.3506C6.58419 22.1618 12.8039 19.4741 17.4237 14.8403C19.5414 12.7247 21.2742 10.2563 22.5444 7.54578C22.5444 7.54578 19.8706 19.7558 0.519367 25.1369Z" fill="black"/>
</g>
<g style="mix-blend-mode:multiply" opacity="0.15">
<path d="M3.96834 31.3775C3.22534 30.571 2.57194 29.6863 2.01959 28.739C6.53443 30.2172 11.3706 30.415 15.9911 29.3106C20.6116 28.2061 24.8355 25.8426 28.1939 22.4825C28.8237 21.8526 29.4212 21.1911 29.984 20.5007C29.984 20.5007 22.5198 33.6546 3.96834 31.3775Z" fill="black"/>
</g>
<g style="mix-blend-mode:multiply" opacity="0.25">
<path d="M26.9976 23.856C26.757 24.0642 26.5053 24.2831 26.2425 24.5127C25.9767 24.7348 25.7143 24.9977 25.4073 25.2111C25.1066 25.4351 24.7918 25.6679 24.4712 25.9061C24.1565 26.1554 23.798 26.3547 23.4479 26.5851C23.0919 26.8263 22.7227 27.0475 22.342 27.2476C21.954 27.4532 21.566 27.6608 21.1678 27.8747C20.76 28.0634 20.3433 28.2438 19.9199 28.4276C19.5038 28.6245 19.0605 28.7613 18.625 28.9228L17.9683 29.158C17.7466 29.2322 17.5192 29.2895 17.2951 29.3554C16.846 29.4704 16.3998 29.6207 15.9429 29.7056C15.4884 29.7987 15.034 29.8919 14.5824 29.9821C13.6959 30.1259 12.8024 30.223 11.9057 30.2731C11.0681 30.3217 10.2287 30.3282 9.39047 30.2925C8.99082 30.2595 8.60185 30.2265 8.22645 30.1955C8.04021 30.179 7.85688 30.1601 7.67646 30.1436C7.49846 30.1188 7.32046 30.0888 7.15071 30.0616C6.80587 30.0068 6.48043 29.9544 6.16567 29.9025C5.8509 29.8506 5.56329 29.7658 5.28684 29.7085C4.73975 29.5713 4.26056 29.4704 3.8745 29.336C3.15475 29.1091 2.72795 28.9611 2.67557 28.9422C2.68231 28.9461 2.69008 28.948 2.69788 28.9475C7.13548 30.2687 11.8477 30.3656 16.3359 29.2279C20.8241 28.0903 24.9212 25.7604 28.1936 22.4849C28.618 22.0605 29.023 21.6278 29.4091 21.1821C29.3489 21.2583 29.0696 21.6036 28.6156 22.1453C28.4783 22.2986 28.3527 22.4684 28.1694 22.6517L27.6218 23.2158L26.9976 23.856Z" fill="black"/>
</g>
<g style="mix-blend-mode:multiply" opacity="0.25">
<path d="M0.650635 22.3233H0.653545C0.6453 22.3262 0.64239 22.3233 0.637054 22.3233C0.641473 22.3219 0.646211 22.3219 0.650635 22.3233Z" fill="black"/>
</g>
<g style="mix-blend-mode:multiply" opacity="0.25">
<path d="M22.2106 8.23534C22.2062 8.24228 22.2025 8.2496 22.1994 8.25717V8.25426C22.1994 8.24601 22.2076 8.24068 22.2101 8.23243C22.213 8.22647 22.2168 8.22094 22.2212 8.21594C22.2212 8.21594 22.2159 8.22467 22.2106 8.23534Z" fill="black"/>
</g>
<g style="mix-blend-mode:multiply" opacity="0.25">
<path d="M17.4179 15.3165C16.8387 15.9054 16.2274 16.4618 15.587 16.9834C14.9283 17.5228 14.2422 18.0279 13.5315 18.4966C13.1702 18.7324 12.8088 18.9622 12.4368 19.1703L11.8839 19.4875C11.6948 19.5845 11.5085 19.6815 11.3199 19.7785C11.1312 19.8755 10.945 19.9725 10.7587 20.0661C10.5701 20.151 10.3785 20.2388 10.1922 20.3207C9.81442 20.4958 9.43661 20.6438 9.0617 20.7888C8.6897 20.942 8.31721 21.0681 7.95055 21.1884C7.58389 21.3087 7.21965 21.4154 6.86656 21.5114C6.51639 21.6152 6.17155 21.7028 5.83205 21.7743C5.49545 21.848 5.16953 21.9198 4.85476 21.9736C4.53997 22.0275 4.23927 22.0862 3.95166 22.1216C3.66405 22.157 3.38808 22.1875 3.13054 22.2147C2.61353 22.2666 2.16054 22.286 1.79242 22.3161C1.14348 22.3296 0.740926 22.3267 0.653625 22.3267C6.97758 21.9929 12.953 19.3254 17.4237 14.8402C19.3529 12.9118 20.9648 10.6901 22.1995 8.25769C22.1806 8.30619 22.1452 8.38331 22.0957 8.50019C22.0191 8.6811 21.9017 8.94931 21.7373 9.28057C21.2844 10.204 20.7686 11.0953 20.1935 11.9481C19.8108 12.5212 19.3996 13.0748 18.9616 13.6068C18.4805 14.206 17.965 14.7769 17.4179 15.3165Z" fill="black"/>
</g>
<g style="mix-blend-mode:screen" opacity="0.4">
<path d="M28.1936 22.4849C24.9209 25.7599 20.8238 28.0892 16.3357 29.2265C11.8476 30.3637 7.13563 30.2665 2.6983 28.9451C2.805 28.9641 3.23714 29.0465 3.91324 29.1876C4.30125 29.2846 4.78916 29.3409 5.33917 29.4204C5.88965 29.5174 6.51918 29.5601 7.19771 29.6203C7.37037 29.6338 7.54546 29.6503 7.72054 29.6688C7.89854 29.6717 8.07896 29.677 8.26278 29.6799C8.63187 29.6935 9.0126 29.7017 9.404 29.7153C10.1839 29.6799 11.0079 29.6877 11.8562 29.5892C12.7074 29.5407 13.5697 29.3758 14.4539 29.2473C14.8916 29.1542 15.3304 29.0602 15.7702 28.9655C16.2135 28.8777 16.6432 28.7274 17.0797 28.6124C17.2989 28.5523 17.5206 28.4999 17.734 28.4291L18.3747 28.2045C18.7985 28.0537 19.2312 27.9281 19.6391 27.7389C20.047 27.5668 20.4548 27.3941 20.8598 27.2243C21.2512 27.0303 21.6397 26.8363 22.0204 26.6496C22.4084 26.4745 22.7591 26.2393 23.118 26.0448C23.4735 25.8367 23.8324 25.6568 24.1496 25.4288C24.7985 24.9923 25.4281 24.5995 25.9587 24.1727C26.2327 23.9704 26.4956 23.773 26.7444 23.5844C26.9869 23.3816 27.2124 23.1872 27.4234 23.0067C27.6344 22.8263 27.8366 22.6536 28.0204 22.4975C28.1979 22.352 28.3541 22.1803 28.502 22.0435C29.0108 21.5507 29.3338 21.2496 29.4051 21.1841C29.0229 21.6279 28.618 22.0605 28.1936 22.4849Z" fill="white"/>
</g>
<g style="mix-blend-mode:screen" opacity="0.4">
<path d="M17.4236 14.8403C12.9528 19.3251 6.97739 21.9924 0.653545 22.3258C0.6453 22.3288 0.64239 22.3258 0.637054 22.3258C0.641473 22.3245 0.646211 22.3245 0.650635 22.3258C0.740846 22.3123 1.14097 22.2516 1.78409 22.1673C2.14542 22.1013 2.58581 22.0382 3.08682 21.9315C3.58783 21.8248 4.15383 21.7016 4.75911 21.5401C5.06565 21.4688 5.37751 21.3762 5.70052 21.2773C6.02353 21.1783 6.36013 21.0833 6.69963 20.9625C7.04156 20.8505 7.38931 20.7326 7.73997 20.5905C8.09062 20.4484 8.45147 20.3223 8.80455 20.1608C9.16588 20.0075 9.52964 19.8514 9.88854 19.668C10.2499 19.4983 10.616 19.3149 10.972 19.1204C11.1559 19.0234 11.3363 18.9264 11.5196 18.8294L12.0531 18.5147C12.4115 18.3095 12.7593 18.0825 13.1041 17.8526C13.7995 17.4033 14.4718 16.9192 15.1184 16.402C15.7561 15.8898 16.3745 15.3699 16.9415 14.8306C17.9843 13.8556 18.9522 12.8034 19.837 11.6829C20.4696 10.8894 21.0591 10.0624 21.6029 9.20549C21.9259 8.70205 22.131 8.36546 22.197 8.25584C22.197 8.2476 22.2052 8.24226 22.2077 8.23402C22.2106 8.22805 22.2144 8.22248 22.2188 8.21753C22.2188 8.21753 22.2159 8.22577 22.2106 8.23693C22.2062 8.24387 22.2025 8.25114 22.1994 8.25875C20.9647 10.6908 19.3527 12.9121 17.4236 14.8403Z" fill="white"/>
</g>
<g style="mix-blend-mode:multiply" opacity="0.25">
<path d="M25.6047 31.8182C22.7917 34.6309 18.9766 36.211 14.9986 36.211C11.0206 36.211 7.20558 34.6309 4.39252 31.8182C4.39252 31.8182 4.49388 31.9031 4.68352 32.0607C4.87217 32.2276 5.16511 32.4439 5.53177 32.7233C5.90668 32.9939 6.37229 33.3053 6.91938 33.6346C7.53824 33.988 8.17709 34.3051 8.83272 34.5842C9.60849 34.9042 10.4084 35.1624 11.2248 35.3564C12.1317 35.5646 13.0548 35.6944 13.984 35.7444C14.975 35.7938 15.9685 35.748 16.9507 35.6076C17.9635 35.4686 18.9584 35.2208 19.918 34.8684C20.8819 34.5248 21.8075 34.0817 22.6796 33.5463C23.5246 33.0271 24.3179 32.4283 25.0489 31.7581C25.7338 31.1262 26.3622 30.4357 26.9268 29.6944C27.4319 29.0256 27.8821 28.3171 28.2732 27.5759C28.6054 26.9441 28.8962 26.2914 29.1438 25.6218C29.3572 25.0194 29.5211 24.483 29.6336 24.0368C29.7461 23.5906 29.8252 23.2322 29.8664 22.9887C29.8989 22.8025 29.9207 22.6875 29.9319 22.6381C29.6048 26.1093 28.074 29.3568 25.6047 31.8182Z" fill="black"/>
</g>
<g style="mix-blend-mode:screen" opacity="0.4">
<path d="M16.4709 1.94875L15.012 0.560666L13.0633 2.57538C12.327 3.33878 11.5714 4.08908 10.8245 4.84714C10.0776 5.60521 9.32729 6.35502 8.57165 7.09951C7.81601 7.84399 7.06813 8.59963 6.29988 9.33878L5.15333 10.447L4.59216 10.9975C4.40592 11.1915 4.20901 11.3748 4.04168 11.564C3.68834 11.9402 3.35625 12.3357 3.04693 12.7488C2.73507 13.165 2.44747 13.6 2.17392 14.0438C1.90268 14.488 1.65592 14.9467 1.43478 15.4178C1.20779 15.8912 1.0104 16.3781 0.829974 16.8729C0.663132 17.3685 0.495806 17.869 0.372615 18.3866C0.244088 18.8876 0.142721 19.4051 0.0554199 19.9192C0.354379 16.4003 1.8904 13.101 4.39088 10.6071L14.9985 0L21.8409 6.84245C20.6177 5.7832 19.4295 4.69388 18.2417 3.59922L16.4709 1.94875Z" fill="white"/>
</g>
</g>
<defs>
<linearGradient id="paint0_linear_34_115" x1="-128.474" y1="-74.6816" x2="-131.446" y2="-53.8195" gradientUnits="userSpaceOnUse">
<stop stop-color="#3E6896"/>
<stop offset="0.247" stop-color="#355881"/>
<stop offset="0.75" stop-color="#1F324E"/>
<stop offset="1" stop-color="#131D32"/>
</linearGradient>
<linearGradient id="paint1_linear_34_115" x1="-140.766" y1="-81.5934" x2="-140.766" y2="-56.0957" gradientUnits="userSpaceOnUse">
<stop stop-color="#5F2C82"/>
<stop offset="0.04" stop-color="#5D3283"/>
<stop offset="0.35" stop-color="#54618E"/>
<stop offset="0.625" stop-color="#4E8396"/>
<stop offset="0.851" stop-color="#4A989B"/>
<stop offset="1" stop-color="#49A09D"/>
</linearGradient>
<linearGradient id="paint2_linear_34_115" x1="-149.947" y1="-83.2555" x2="-149.947" y2="-55.7644" gradientUnits="userSpaceOnUse">
<stop stop-color="#0098BA"/>
<stop offset="0.017" stop-color="#009BBC"/>
<stop offset="0.19" stop-color="#00BAD4"/>
<stop offset="0.371" stop-color="#00D3E7"/>
<stop offset="0.56" stop-color="#00E5F4"/>
<stop offset="0.762" stop-color="#00EFFC"/>
<stop offset="1" stop-color="#00F3FF"/>
</linearGradient>
</defs>
</svg>
